<svg xmlns="http://www.w3.org/2000/svg" viewBox="0 0 294.8 165.44"><defs><style>.cls-1{fill:#fff;}.cls-2,.cls-5{fill:#376eb5;}.cls-2,.cls-3{fill-rule:evenodd;}.cls-3{fill:#4c4596;}.cls-4{fill:none;stroke:#4c4596;stroke-width:0.5px;isolation:isolate;}.cls-6{fill:#333;}</style></defs><title>small-4yd</title><g id="Layer_2" data-name="Layer 2"><g id="Skips_Blue" data-name="Skips Blue"><g id="small-4yd"><rect class="cls-1" width="294.8" height="165.44"/><path class="cls-2" d="M84,146.63,56.69,93H50.32c-.51-.48-2-3.76-1.54-3.89.73-.24,16.1-17.94,16.1-17.94l68.24,7.27,13.64-22.74,3.64-.91,82.79,21.83L239.56,92l-1.82,1.82-14.55,43.67-73.7,22.75Z"/><path id="Shape_13_copy" data-name="Shape 13 copy" class="cls-3" d="M132.21,82l.91-3.64L66.67,71.54S51,88.9,50.32,89.31,52.14,93,52.14,93h6.37Z"/><path class="cls-3" d="M132.2,82.94l2.64,6.23-85,3.49-1.33-3.83Z"/><path class="cls-3" d="M84,146.63,55.78,92l78.56-2.71,15.15,71Z"/><path id="Shape_16_copy" data-name="Shape 16 copy" class="cls-4" d="M137.66,76.57c-3.41,5.81-5.45,6.37-5.45,6.37l2.23,6.84a50.82,50.82,0,0,0,5-5c2.78-3.13,2.73-4.55,2.73-4.55l91.89,10,3.64,3.64L239.47,92c-1-.84-.58-2.72-1.43-3.7-1.6-1.79-4.85-11.77-4.85-11.77L150.58,55.14S141.08,70.77,137.66,76.57Z"/><path class="cls-4" d="M226.83,78.4v7.28l-60.05-8.2V62.93Z"/><path class="cls-4" d="M233.19,86.59l-3.64-7.28v6.37Z"/><path class="cls-3" d="M166.72,65.81,226.83,78.4,166.78,62.93Z"/><path class="cls-2" d="M108.55,91.13l12.73,44.58,6.38,3.64,1.82-.91-.91-6.37-5.46.91L111.4,91.13Z"/><path class="cls-2" d="M118.56,133.9l-36.39-1.82L64.88,93h4.55l15.47,36.4,32.75,2.73Z"/><path class="cls-3" d="M110.37,91.13h-5.46L117.64,133,84,130.25,67.61,93H63.06l18.2,40.94,47.31,5.46-.91-5.46H122.2L110.37,91.13Z"/><path class="cls-2" d="M137.66,76.57c-3,5.31-7,6.44-7,6.44L48.55,88.83l3-2.49,75.65-5.49c2.6-.3,3.69-.63,5-1.55,1.85-1.52,14.55-24.56,14.55-24.56h3.64S140.65,71.27,137.66,76.57Z"/><path class="cls-4" d="M163.14,76.58V62L154,59.29l-8.19,14.55Z"/><path class="cls-3" d="M162.89,62.35l-4.54.91V76.09l4.79.49Z"/><path class="cls-3" d="M162.77,62.23l-4.32,1.5-6.06-1L154.21,59Z"/><g id="Feet_copy" data-name="Feet copy"><path class="cls-3" d="M138.47,159.28v-6.56l2.81,4.68Z"/><rect class="cls-5" x="134.72" y="152.71" width="3.75" height="6.56"/><path id="Shape_11_copy" data-name="Shape 11 copy" class="cls-3" d="M121.61,155.53V149l2.81,4.68Z"/><path id="Shape_10_copy" data-name="Shape 10 copy" class="cls-2" d="M121.61,155.53h-3.75V149h3.75Z"/><g id="Group_1_copy" data-name="Group 1 copy"><path id="Shape_11_copy-2" data-name="Shape 11 copy-2" class="cls-3" d="M105.68,152.72v-6.56l2.81,4.68Z"/><path id="Shape_10_copy-2" data-name="Shape 10 copy-2" class="cls-2" d="M105.68,152.72h-3.74v-6.56h3.74Z"/></g><g id="Group_1_copy_2" data-name="Group 1 copy 2"><path id="Shape_11_copy-3" data-name="Shape 11 copy-3" class="cls-3" d="M90.69,149.91v-6.56L93.5,148Z"/><path id="Shape_10_copy-3" data-name="Shape 10 copy-3" class="cls-2" d="M90.68,149.91H86.94v-6.56h3.74Z"/></g></g><g id="lnlvE3"><path class="cls-6" d="M284.31,98.5c0,1.12,0,2.23,0,3.34a4.31,4.31,0,0,0,1,2.93c.36.45.78,1,.24,1.59-.14.16,0,.36.07.53a3.88,3.88,0,0,1-.31,4.15,2.16,2.16,0,0,0-.21,1.42,70,70,0,0,1-1,13.72c-.21,1.35-.45,2.69-.65,4a3.41,3.41,0,0,0,.39,2c.66,1.31,1.34,2.61,1.95,3.94a2.16,2.16,0,0,1-1.84,3.31,18,18,0,0,1-3.74.05,1.72,1.72,0,0,1-1.75-1.8c-.29-3.15-1-6.27-.65-9.48.3-2.55-.32-5-.71-7.53-.46-2.93-.76-5.87-1-8.82a1.7,1.7,0,0,0-.76-1.53c-.26-.15-.45-.2-.6.1-1,2-2.28,3.87-2.09,6.25,0,.24,0,.57.17.68.72.39.52.8.14,1.29-.15.2-.06.48,0,.72.5,4.1,1,8.2,1.49,12.31a9.72,9.72,0,0,1-1.87,7,1.82,1.82,0,0,1-1.91.78,5.48,5.48,0,0,1-4.08-2.82c-.56-.93-1.14-1.85-1.71-2.77a1.61,1.61,0,0,0-1-.75c-.45-.12-.74-.07-.91.39a1.5,1.5,0,0,1-1.32.92,6.62,6.62,0,0,1-3.45.09,1.08,1.08,0,0,0-1,.31c-1,1.07-2.43,1.14-3.76,1.36-1.7.27-1.71.24-1.93,2a33,33,0,0,1-3.17,11,6.72,6.72,0,0,1-5.47,3.88,5.47,5.47,0,0,1-5.4-3.07,8.17,8.17,0,0,1-.9-2.52,1.05,1.05,0,0,0-1-1c-1.08-.17-2.15-.36-3.22-.57-2.12-.41-2.78-1.92-1.61-3.8a9.85,9.85,0,0,0,1-2.31,7.41,7.41,0,0,0,.34-1.76,11.58,11.58,0,0,1,1-3.69c1.74-4.1,3.18-8.32,4.86-12.45.18-.45.24-.83-.26-1.12a20.61,20.61,0,0,1-4.92-4.72q-2.08-2.46-4.14-4.94a4,4,0,0,0-1.7-1.21,11.83,11.83,0,0,1-3.65-2.12c-1.56-1.4-1.53-2.93.18-4.13,3.92-2.75,7.89-5.42,12-7.87a3.63,3.63,0,0,0,1.84-3.51,4.66,4.66,0,0,1,0-.65c.1-1,.33-1.16,1.31-1,.3,0,.59.1.88.16a6.69,6.69,0,0,0,4.37-.07,10.1,10.1,0,0,1,4.59-.45c1.29.06,1.29,0,1.52-1.21a18.61,18.61,0,0,1,.48-2.06,3.93,3.93,0,0,0-.12-2.88,3.82,3.82,0,0,1,.09-3.36,13.07,13.07,0,0,0,1-4c.23-2.05.66-4.08,1-6.11a34.45,34.45,0,0,0,.61-4.28c.13-3.58,1.4-6.84,2.79-10.07.11-.25.2-.5.32-.75.26-.51.21-.9-.41-1.06s-.65-.54-.54-1.07q1.09-5.27,2.18-10.54s0,0,0-.08c-.15-1.26.65-2.23,1.09-3.29A6,6,0,0,1,262,36.39a37.1,37.1,0,0,0,5.46-2.73,1.92,1.92,0,0,0,1-2c-.11-.78-.76-1.09-1.37-1.37-1.25-.57-1.38-.8-1.39-2.16a7.49,7.49,0,0,1,.63-3.65.73.73,0,0,0-.11-.83.92.92,0,0,1,.1-1.39c1-.73.71-1.81.88-2.76.05-.28-.23-.39-.44-.53-.67-.46-1.33-.94-2-1.41-.22-.16-.52-.28-.42-.62s.43-.37.74-.37a9.72,9.72,0,0,1,1.62.05,1,1,0,0,0,1.25-.72A7.35,7.35,0,0,1,273,11.5a4.62,4.62,0,0,1,2.42.1A10.85,10.85,0,0,1,282,16.41a4.62,4.62,0,0,1,.29,3.94,10.6,10.6,0,0,0-.72,4.22c.09.88-.31,1.23-1.22,1.41a1.1,1.1,0,0,0-.85.42,3.88,3.88,0,0,1-1.22,1.06,3.35,3.35,0,0,0-.81,3.77c.26.44.84.38,1.12.78a15.48,15.48,0,0,0,4,3.32A30.11,30.11,0,0,0,286,37.59a5.73,5.73,0,0,1,3,4.4,36,36,0,0,1,.68,5.18c.12,2.85.59,5.67.87,8.52.07.67.15,1.32-.78,1.49-.31.06-.35.38-.38.66a5.55,5.55,0,0,0,.11,1.95,55.25,55.25,0,0,1,.85,11,141,141,0,0,0,.69,14.09,3.87,3.87,0,0,1-.59,2.55,17.53,17.53,0,0,1-1.53,2.12,2,2,0,0,1-1.74.74c-1.54,0-2.54.5-2.86,2.07A22.44,22.44,0,0,0,284.31,98.5Zm-12.12,33.9-.84-7q-.48-4-.94-7.92a.93.93,0,0,0-.73-.93c-.56-.14-.81.13-1.07.51-.46.7-.92,1.41-1.4,2.1-1.14,1.66-2.28,3.31-3.48,4.92s-1.06,2-.21,3.44c1.23,2.11,3,3.84,4,6.12a15.74,15.74,0,0,0,2,2.91c.61.83,1.26.77,1.78-.11A7.46,7.46,0,0,0,272.19,132.4ZM259.88,63.91c-.21.52-.4,1-.57,1.4-1.14,2.88-2.8,5.52-3.94,8.41-.81,2-1.41,4.07-.38,6.22a2.29,2.29,0,0,1,.14,2c-.1.21.06.36.18.51a.45.45,0,0,1,.12.52,4.88,4.88,0,0,0-.3,1.6.8.8,0,0,1-.73.82,2.52,2.52,0,0,0-1.78,1.46,13,13,0,0,0-.69,3.09c-.08.42.11.66.56.72.73.09,1.45.21,2.18.34s.88-.11.85-.73c-.17-2.59.73-5.12.42-7.71a1.44,1.44,0,0,1,.09-.4c1.32-5.76,3.19-11.41,3.79-17.33C259.85,64.58,260.07,64.32,259.88,63.91ZM233.64,138c1.18-1.64,2.69-3,3.57-4.84,1.25-2.59,2.35-5.24,3.56-7.85.91-2,.92-1.91-.83-3.15-.63-.43-.84-.3-1.09.36q-2.52,6.7-5.1,13.38A3.48,3.48,0,0,0,233.64,138ZM285,83.66l.22,0c.57-1.22,1.49-2.24,1.46-3.77a33.73,33.73,0,0,0-.45-5.5,16.85,16.85,0,0,0-1.28-4.24c-.34,1.24-.59,2.48-.87,3.71a5.72,5.72,0,0,0-.07,2.18c.21,1.51.38,3,.57,4.52Zm-31.66,45.89a1.5,1.5,0,0,0,1.33-.92c.34-.66.61-1.34,1-2s.18-.73-.38-.83l-5.7-1c-.17,0-.41-.18-.5.07s.13.34.24.49a10.5,10.5,0,0,1,2,3.43.41.41,0,0,0,.31.34ZM269.6,88.34l-1.15,2.74c-.73,1.78-.73,1.79,1.18,2,1.57.14,1.6.14,1.23-1.4A11.33,11.33,0,0,0,269.6,88.34ZM236.3,138.9c-.23.12-.32.14-.36.19q-1.45,1.95-2.89,3.92c-.26.34-.09.48.25.54.74.13,1.49.26,2.23.41.41.08.56-.12.57-.48C236.12,142,235.77,140.49,236.3,138.9Z"/></g><path class="cls-1" d="M175.54,116.05l6.75-.66a8.19,8.19,0,0,0,2.47,5,7.44,7.44,0,0,0,5,1.6,7.7,7.7,0,0,0,5.05-1.42,4.23,4.23,0,0,0,1.7-3.32,3.11,3.11,0,0,0-.72-2.07,5.68,5.68,0,0,0-2.49-1.49q-1.23-.42-5.56-1.5-5.58-1.38-7.83-3.4A9,9,0,0,1,178.27,97a9.21,9.21,0,0,1,4.29-3.48,17.1,17.1,0,0,1,6.76-1.2q6.47,0,9.74,2.84a10,10,0,0,1,3.43,7.57l-6.94.3a5.88,5.88,0,0,0-1.91-3.81A7,7,0,0,0,189.25,98a7.94,7.94,0,0,0-4.74,1.25,2.51,2.51,0,0,0-1.1,2.13,2.67,2.67,0,0,0,1,2.09c.88.73,3,1.5,6.38,2.29a33.47,33.47,0,0,1,7.49,2.48,9.61,9.61,0,0,1,3.79,3.49,10.75,10.75,0,0,1-.27,11,9.77,9.77,0,0,1-4.64,3.83,19.36,19.36,0,0,1-7.47,1.26q-6.53,0-10-3T175.54,116.05Z"/></g></g></g></svg>